<!DOCTYPE svg PUBLIC "-//W3C//DTD SVG 20010904//EN"
 "http://www.w3.org/TR/2001/REC-SVG-20010904/DTD/svg10.dtd">
<svg version="1.0" xmlns="http://www.w3.org/2000/svg"
 width="200.000000pt" height="47.000000pt" viewBox="0 0 200.000000 47.000000"
 preserveAspectRatio="xMidYMid meet">

<g transform="translate(0.000000,47.000000) scale(0.100000,-0.100000)"
fill="#000000" stroke="none">
<path d="M33 423 c-10 -4 -13 -50 -13 -189 l0 -184 24 0 c32 0 36 15 37 128
l0 97 55 -107 c72 -143 78 -143 147 -1 l52 107 3 -106 c3 -110 12 -135 46
-122 14 5 16 29 16 189 0 186 -3 200 -38 188 -7 -3 -45 -68 -83 -146 l-71
-140 -70 141 c-68 138 -80 154 -105 145z"/>
<path d="M1235 416 c-15 -11 -17 -29 -14 -147 4 -130 5 -137 32 -172 53 -70
155 -73 211 -6 48 57 46 125 -5 184 -38 43 -87 54 -135 31 -19 -9 -37 -16 -39
-16 -3 0 -5 29 -5 64 0 68 -13 86 -45 62z m183 -179 c35 -32 30 -88 -10 -122
-37 -31 -71 -28 -105 11 -27 30 -29 70 -7 102 31 45 78 49 122 9z"/>
<path d="M532 302 c-102 -55 -95 -210 12 -251 35 -13 44 -13 84 1 38 14 47 15
59 3 7 -8 20 -12 28 -9 12 5 15 26 15 91 0 99 -14 130 -70 162 -45 25 -84 26
-128 3z m108 -52 c23 -12 39 -59 33 -94 -8 -39 -50 -69 -88 -62 -41 8 -65 40
-65 87 0 65 61 100 120 69z"/>
<path d="M803 313 c-10 -3 -13 -40 -13 -134 l0 -129 24 0 c31 0 36 15 36 109
0 85 8 101 52 101 38 0 48 -25 48 -124 0 -84 1 -86 24 -86 31 0 36 15 36 111
0 72 2 80 24 94 19 13 29 14 45 5 25 -13 30 -33 33 -130 3 -69 5 -75 25 -78
30 -4 37 26 31 129 -4 65 -9 84 -28 104 -31 33 -79 41 -122 21 -31 -15 -37
-15 -64 -1 -34 18 -58 19 -85 5 -12 -7 -26 -7 -36 -2 -10 5 -24 7 -30 5z"/>
<path d="M1615 304 c-50 -25 -70 -61 -70 -126 0 -46 4 -61 25 -83 54 -58 117
-70 182 -35 31 16 38 17 48 5 36 -43 135 -35 170 14 64 90 -26 209 -130 173
-27 -10 -32 -8 -46 13 -33 50 -120 69 -179 39z m120 -87 c20 -29 19 -53 -5
-77 -40 -40 -110 -15 -110 39 0 34 10 48 40 59 32 12 57 5 75 -21z m176 -27
c29 -16 25 -65 -6 -86 -23 -15 -27 -15 -50 0 -29 19 -32 51 -8 78 18 20 36 23
64 8z"/>
</g>
</svg>